<svg width="174" height="26" viewBox="0 0 174 26" fill="none" xmlns="http://www.w3.org/2000/svg">
<g clip-path="url(#clip0_1_2)">
<path d="M20.1369 26C22.8983 26 25.1842 23.7425 24.6732 21.0288C24.3528 19.3274 23.8679 17.6594 23.2235 16.0502C21.9602 12.8958 20.1087 10.0295 17.7745 7.61522C15.4403 5.2009 12.6692 3.28575 9.61949 1.97913C8.11383 1.33406 6.55481 0.843538 4.96489 0.512196C2.26154 -0.0511824 0 2.23858 0 5V21C0 23.7614 2.23858 26 5 26H20.1369Z" fill="#615DFF"/>
<g style="mix-blend-mode:multiply">
<path d="M13.7013 26C10.9399 26 8.65395 23.7425 9.16502 21.0288C9.48544 19.3274 9.97031 17.6594 10.6147 16.0502C11.878 12.8958 13.7295 10.0295 16.0637 7.61522C18.3979 5.2009 21.169 3.28575 24.2187 1.97913C25.7244 1.33406 27.2834 0.843538 28.8733 0.512196C31.5767 -0.0511824 33.8382 2.23858 33.8382 5V21C33.8382 23.7614 31.5996 26 28.8382 26H13.7013Z" fill="#3DD9EB"/>
</g>
<path d="M46.4072 6.74805H48.7305V20.6406H46.4072V6.74805ZM59.7822 13.4595V20.6406H57.5775V13.9048C57.5775 13.1317 57.3641 12.5472 56.9374 12.1514C56.5168 11.7494 55.9323 11.5483 55.1839 11.5483C54.3911 11.5483 53.7602 11.7927 53.2902 12.2812C52.8202 12.7698 52.5851 13.4966 52.5851 14.4614V20.6406H50.3618V10.1753H52.5851V11.4741C52.9624 10.9917 53.4448 10.6268 54.0324 10.3794C54.6262 10.132 55.2911 10.0083 56.0271 10.0083C57.2146 10.0083 58.1548 10.3577 58.8475 11.0566C59.5402 11.7556 59.7822 12.7451 59.7822 14.0337V13.4595ZM65.8657 10.1753V20.6406H63.6424V10.1753H65.8657ZM63.3549 7.05112C63.3549 6.69858 63.4662 6.40171 63.6889 6.16049C63.9178 5.91927 64.2394 5.79865 64.6538 5.79865C65.0682 5.79865 65.3867 5.91927 65.6094 6.16049C65.8383 6.40171 65.9527 6.69858 65.9527 7.05112C65.9527 7.39748 65.8383 7.69435 65.6094 7.94174C65.3867 8.18296 65.0682 8.30357 64.6538 8.30357C64.2394 8.30357 63.9178 8.18296 63.6889 7.94174C63.4662 7.69435 63.3549 7.39748 63.3549 7.05112ZM68.5938 15.4077C68.5938 14.6098 68.7361 13.884 69.0207 13.2305C69.3114 12.5708 69.7135 12.0122 70.2271 11.5545C70.7406 11.0968 71.3375 10.7474 72.0178 10.5061C72.698 10.2587 73.4124 10.1351 74.1608 10.1351C74.9093 10.1351 75.6237 10.2587 76.304 10.5061C76.9842 10.7474 77.5749 11.0968 78.0762 11.5483C78.5834 11.9937 78.9792 12.5492 79.2637 13.2151C79.5544 13.8809 79.6998 14.6283 79.6998 15.4571C79.6998 16.2858 79.5514 17.0303 79.2544 17.6904C78.9637 18.3506 78.5617 18.9102 78.0482 19.3679C77.5347 19.8194 76.9377 20.1658 76.2575 20.4072C75.5772 20.6484 74.8628 20.769 74.1144 20.769C73.366 20.769 72.6515 20.6484 71.9713 20.4072C71.291 20.1658 70.6973 19.8194 70.1899 19.3679C69.6827 18.9164 69.2869 18.3598 69.0023 17.6996C68.73 17.0333 68.5938 16.2766 68.5938 15.4077ZM70.9265 15.4077C70.9265 15.8961 71.0068 16.3384 71.1676 16.7342C71.3283 17.1301 71.5478 17.4734 71.8262 17.7641C72.1046 18.0548 72.4262 18.2775 72.7912 18.4321C73.1561 18.5805 73.5458 18.6548 73.9589 18.6548C74.372 18.6548 74.7618 18.5805 75.1267 18.4321C75.4916 18.2775 75.8101 18.0548 76.0823 17.7641C76.3606 17.4734 76.5802 17.1301 76.7409 16.7342C76.9017 16.3384 76.982 15.8961 76.982 15.4077C76.982 14.9193 76.9017 14.4831 76.7409 14.0996C76.5802 13.7099 76.3606 13.3758 76.0823 13.0975C75.8101 12.8192 75.4916 12.6028 75.1267 12.4482C74.7618 12.2937 74.372 12.2163 73.9589 12.2163C73.5458 12.2163 73.1561 12.2937 72.7912 12.4482C72.4262 12.6028 72.1046 12.8192 71.8262 13.0975C71.5478 13.3758 71.3283 13.7099 71.1676 14.0996C71.0068 14.4831 70.9265 14.9193 70.9265 15.4077ZM82.8169 20.6406H80.5936V10.1753H82.8169V11.4648C83.1942 10.9763 83.6458 10.6082 84.1715 10.3608C84.6971 10.1133 85.2878 9.9896 85.9434 9.9896C87.0557 9.9896 87.9402 10.3206 88.5969 10.9825C89.2536 11.6382 89.582 12.562 89.582 13.7534V20.6406H87.3587V14.0903C87.3587 13.3172 87.1453 12.7266 86.7186 12.3184C86.298 11.9102 85.7134 11.7061 84.9651 11.7061C84.1723 11.7061 83.5413 11.9504 83.0713 12.439C82.6013 12.9275 82.3663 13.6543 82.3663 14.6191V20.6406H82.8169ZM101.066 10.1753V20.6406H98.8424V19.3511C98.4651 19.8458 98.0105 20.217 97.4785 20.4644C96.9528 20.7056 96.3621 20.8262 95.7065 20.8262C94.5942 20.8262 93.7097 20.4983 93.053 19.8427C92.3963 19.1808 92.0679 18.254 92.0679 17.0625V10.1753H94.2912V16.7256C94.2912 17.4988 94.5046 18.0925 94.9313 18.5068C95.3519 18.9149 95.9365 19.119 96.6849 19.119C97.4777 19.119 98.1086 18.8716 98.5787 18.3768C99.0487 17.8821 99.2837 17.1491 99.2837 16.1776V10.1753H101.066ZM115.004 6.74805V20.6406H112.781V15.7388H106.296V20.6406H104.072V6.74805H106.296V13.6141H112.781V6.74805H115.004ZM122.77 10.1753L126.688 18.002L130.494 10.1753H132.968L127.705 20.6406H125.578L120.325 10.1753H122.77Z" fill="#615DFF"/>
</g>
<defs>
<clipPath id="clip0_1_2">
<rect width="174" height="26" fill="white"/>
</clipPath>
</defs>
</svg>
